<?xml version="1.0" encoding="utf-8"?>
<!-- Generator: Adobe Illustrator 22.0.0, SVG Export Plug-In . SVG Version: 6.00 Build 0)  -->
<svg version="1.1" id="Calque_1" xmlns="http://www.w3.org/2000/svg" xmlns:xlink="http://www.w3.org/1999/xlink" x="0px" y="0px"
	 viewBox="0 0 1920 1080" style="enable-background:new 0 0 1920 1080;" xml:space="preserve">
<style type="text/css">
	.st0{fill:#7ACFCA;}
	.st1{fill:#4D91BB;}
	.st2{fill:#50BAB5;}
	.st3{fill:#C1EBF4;}
	.st4{fill:#86D8E9;}
</style>
<g>
	<path class="st0" d="M911,701c-2.5-0.9-4.9-2.4-7.5-2.7c-17.7-1.6-35.1-5-51.7-11.5c-6.6-2.6-13-6.7-18.6-11.1
		c-5.6-4.5-5.5-9.6,0-14.4c4.3-3.7,9.3-7,14.5-9.3c17.3-7.6,35.7-10.8,54.4-13c9.4-1.1,18.8-2,28.2-3c1.6,1.1,3.3,2.1,4.7,3.5
		c9.6,9.5,19.1,19,28.6,28.6c2-1.2,3.7-2.1,5.4-3.1c0.8-0.3,1.6-0.4,2.3-0.8c15-8.7,29.9-17.5,44.8-26.3c24.2,2.4,48,6.1,70.1,16.9
		c1,0.5,2,1.2,3,1.8c12.7,8.4,12.1,17-1.4,24.9c-13,7.6-27.6,11.2-42.4,13.7c-8.8,1.4-17.7,2.7-26.5,4.1c-1.4,0.2-2.6,1.2-3.9,1.8
		C980.3,701,945.7,701,911,701z"/>
	<path class="st1" d="M969,665c-1.7,1-3.4,1.9-5.4,3.1c-9.6-9.6-19.1-19.1-28.6-28.6c-1.4-1.4-3.1-2.3-4.7-3.5
		c-1-1.5-1.7-3.2-2.9-4.4c-14-14.1-28.1-28-42-42.1c-20.5-20.8-32-45.4-33.7-74.9c-3.2-54.7,34-104.7,89.2-116
		c58.7-12.1,114.5,22.4,130.5,77.1c12.5,43,2.7,81.1-28.5,113.4c-13.8,14.2-28,28-41.9,42.1c-1.3,1.3-1.9,3.2-2.9,4.8
		c-0.5,0.1-1.1,0-1.4,0.3c-9.1,9.1-18.2,18.2-27.3,27.3C969,663.9,969.1,664.5,969,665z M964,550.3c27.4,2.4,51.4-28.3,38.8-58
		c-6.4-15.1-18.5-23.4-34.7-25.8c-5.1,0.4-10.3,0.3-15.2,1.4c-18.2,4.1-31.9,21.6-31.9,40.2c0,14.8,6.6,26.8,18.4,35.3
		C946.5,548.5,954.7,552.2,964,550.3z"/>
	<path class="st2" d="M969,665c0.1-0.5,0-1.1,0.3-1.4c9.1-9.1,18.2-18.2,27.3-27.3c0.3-0.3,0.9-0.2,1.4-0.3c6,0.6,12.1,1.3,18.1,1.9
		c-14.9,8.8-29.9,17.5-44.8,26.3C970.6,664.6,969.7,664.7,969,665z"/>
	<path class="st3" d="M968.1,466.5c16.2,2.4,28.3,10.7,34.7,25.8c12.5,29.7-11.4,60.4-38.8,58c-7-3.8-14.1-7.2-19.8-13.3
		c-10.9-11.7-13.5-25.5-9.7-39.9c3.1-11.7,10.8-21.1,22.5-26.2C960.7,469.3,964.4,467.9,968.1,466.5z"/>
	<path class="st4" d="M968.1,466.5c-3.7,1.5-7.5,2.8-11.1,4.4c-11.7,5.1-19.4,14.5-22.5,26.2c-3.8,14.5-1.2,28.2,9.7,39.9
		c5.7,6.1,12.8,9.5,19.8,13.3c-9.4,1.9-17.5-1.8-24.6-6.9c-11.8-8.5-18.3-20.4-18.4-35.3c-0.1-18.6,13.7-36.1,31.9-40.2
		C957.9,466.8,963.1,466.9,968.1,466.5z"/>
</g>
</svg>
